<?xml version="1.0" encoding="utf-8"?>
<svg width="90px" height="90px" viewBox="0 0 90 90" id="svg2" version="1.1" xmlns="http://www.w3.org/2000/svg">
<path d="M 36.581 27 L 53.419 27 C 54.702 27 55.742 28.04 55.742 29.323 L 55.742 60.387 C 55.742 61.67 54.702 62.71 53.419 62.71 L 36.581 62.71 C 35.298 62.71 34.258 61.67 34.258 60.387 L 34.258 29.323 C 34.258 28.04 35.298 27 36.581 27 Z" id="path-1" style="opacity: 0.99; fill-opacity: 1; stroke: none; stroke-width: 7.63801; stroke-linecap: round; stroke-linejoin: round; stroke-miterlimit: 4; stroke-dasharray: none; stroke-dashoffset: 0; stroke-opacity: 1; fill: #00000080;"/>
<path style="opacity: 0.99; fill-opacity: 1; stroke: none; stroke-width: 7.63801; stroke-linecap: round; stroke-linejoin: round; stroke-miterlimit: 4; stroke-dasharray: none; stroke-dashoffset: 0; stroke-opacity: 1;" d="M 34.258 34.258 L 34.258 60.677 C 34.258 61.839 35.129 63 36.581 63 L 53.419 63 C 54.871 63 55.742 61.839 55.742 60.677 L 55.742 42.097 L 45 45 L 34.258 34.258 Z" id="path-2"/>
</svg>